HIERARCHY
ROOT Hips
{
	OFFSET 0.087744 88.214287 -0.198783
	CHANNELS 6 Xposition Yposition Zposition Xrotation Yrotation Zrotation
	JOINT Spine
	{
		OFFSET -0.573624 8.254128 4.376324
		CHANNELS 3 Xrotation Yrotation Zrotation
		JOINT Spine1
		{
			OFFSET -0.318996 15.463211 5.000741
			CHANNELS 3 Xrotation Yrotation Zrotation
			JOINT Spine2
			{
				OFFSET 0.003246 13.337120 3.135084
				CHANNELS 3 Xrotation Yrotation Zrotation
				JOINT Neck
				{
					OFFSET 0.717286 14.521477 0.392950
					CHANNELS 3 Xrotation Yrotation Zrotation
					JOINT Neck1
					{
						OFFSET -0.313302 3.824738 2.228864
						CHANNELS 3 Xrotation Yrotation Zrotation
						JOINT Head
						{
							OFFSET -0.290335 3.549057 2.066583
							CHANNELS 3 Xrotation Yrotation Zrotation
							JOINT HeadTop_End
							{
								OFFSET -0.478888 20.621292 6.895185
								CHANNELS 3 Xrotation Yrotation Zrotation
								End Site
								{
									OFFSET -0.070168 3.021484 1.010307
								}
							}
							JOINT L_Eye
							{
								OFFSET 0.892079 4.231140 10.313156
								CHANNELS 3 Xrotation Yrotation Zrotation
								End Site
								{
									OFFSET -0.070168 3.021484 1.010307
								}
							}
							JOINT R_Eye
							{
								OFFSET -4.949604 4.557037 8.932766
								CHANNELS 3 Xrotation Yrotation Zrotation
								End Site
								{
									OFFSET -0.070168 3.021484 1.010307
								}
							}
							JOINT Jaw
							{
								OFFSET -0.621696 1.155899 2.903860
								CHANNELS 3 Xrotation Yrotation Zrotation
								End Site
								{
									OFFSET -0.070168 3.021484 1.010307
								}
							}
						}
					}
				}
				JOINT L_Shoulder
				{
					OFFSET 6.637492 10.513618 1.150069
					CHANNELS 3 Xrotation Yrotation Zrotation
					JOINT L_Arm
					{
						OFFSET 12.417124 -1.161545 0.825585
						CHANNELS 3 Xrotation Yrotation Zrotation
						JOINT L_ForeArm
						{
							OFFSET 26.905319 -1.500992 6.357735
							CHANNELS 3 Xrotation Yrotation Zrotation
							JOINT L_Hand
							{
								OFFSET 27.086826 -1.511124 6.400627
								CHANNELS 3 Xrotation Yrotation Zrotation
								JOINT L_HandThumb1
								{
									OFFSET 1.821404 -2.203629 2.314926
									CHANNELS 3 Xrotation Yrotation Zrotation
									JOINT L_HandThumb2
									{
										OFFSET 2.968040 -2.735756 2.020512
										CHANNELS 3 Xrotation Yrotation Zrotation
										JOINT L_HandThumb3
										{
											OFFSET 3.405090 -3.138657 2.318012
											CHANNELS 3 Xrotation Yrotation Zrotation
											JOINT L_HandThumb4
											{
												OFFSET 1.779030 -1.639793 1.211060
												CHANNELS 3 Xrotation Yrotation Zrotation
												End Site
												{
													OFFSET 1.489952 -1.718178 1.465759
												}
											}
										}
									}
								}
								JOINT L_HandIndex1
								{
									OFFSET 9.690971 -1.498657 4.425238
									CHANNELS 3 Xrotation Yrotation Zrotation
									JOINT L_HandIndex2
									{
										OFFSET 5.392624 -0.300842 1.274275
										CHANNELS 3 Xrotation Yrotation Zrotation
										JOINT L_HandIndex3
										{
											OFFSET 3.295372 -0.183853 0.778698
											CHANNELS 3 Xrotation Yrotation Zrotation
											JOINT L_HandIndex4
											{
												OFFSET 2.268425 -0.126587 0.536030
												CHANNELS 3 Xrotation Yrotation Zrotation
												End Site
												{
													OFFSET 2.268410 -0.126587 0.536121
												}
											}
										}
									}
								}
								JOINT L_HandMiddle1
								{
									OFFSET 10.194588 -0.568787 2.408966
									CHANNELS 3 Xrotation Yrotation Zrotation
									JOINT L_HandMiddle2
									{
										OFFSET 5.628563 -0.314011 1.330030
										CHANNELS 3 Xrotation Yrotation Zrotation
										JOINT L_HandMiddle3
										{
											OFFSET 3.608368 -0.201294 0.852663
											CHANNELS 3 Xrotation Yrotation Zrotation
											JOINT L_HandMiddle4
											{
												OFFSET 2.674347 -0.149216 0.631966
												CHANNELS 3 Xrotation Yrotation Zrotation
												End Site
												{
													OFFSET 2.675201 -0.148026 0.628643
												}
											}
										}
									}
								}
								JOINT L_HandRing1
								{
									OFFSET 10.496277 0.125809 0.207506
									CHANNELS 3 Xrotation Yrotation Zrotation
									JOINT L_HandRing2
									{
										OFFSET 5.291298 -0.295471 1.250977
										CHANNELS 3 Xrotation Yrotation Zrotation
										JOINT L_HandRing3
										{
											OFFSET 3.608521 -0.201050 0.852049
											CHANNELS 3 Xrotation Yrotation Zrotation
											JOINT L_HandRing4
											{
												OFFSET 2.216339 -0.123642 0.523668
												CHANNELS 3 Xrotation Yrotation Zrotation
												End Site
												{
													OFFSET 2.215500 -0.124802 0.526922
												}
											}
										}
									}
								}
								JOINT L_HandPinky1
								{
									OFFSET 10.585579 0.652328 -1.877342
									CHANNELS 3 Xrotation Yrotation Zrotation
									JOINT L_HandPinky2
									{
										OFFSET 3.572510 -0.199295 0.844189
										CHANNELS 3 Xrotation Yrotation Zrotation
										JOINT L_HandPinky3
										{
											OFFSET 2.731918 -0.152435 0.645548
											CHANNELS 3 Xrotation Yrotation Zrotation
											JOINT L_HandPinky4
											{
												OFFSET 1.612701 -0.089951 0.381084
												CHANNELS 3 Xrotation Yrotation Zrotation
												End Site
												{
													OFFSET 1.613144 -0.089371 0.379347
												}
											}
										}
									}
								}
							}
						}
					}
				}
				JOINT R_Shoulder
				{
					OFFSET -5.300089 11.179619 -1.670775
					CHANNELS 3 Xrotation Yrotation Zrotation
					JOINT R_Arm
					{
						OFFSET -11.529359 0.174408 -4.832968
						CHANNELS 3 Xrotation Yrotation Zrotation
						JOINT R_ForeArm
						{
							OFFSET -26.905312 1.501068 -6.357718
							CHANNELS 3 Xrotation Yrotation Zrotation
							JOINT R_Hand
							{
								OFFSET -27.086834 1.511154 -6.400623
								CHANNELS 3 Xrotation Yrotation Zrotation
								JOINT R_HandPinky1
								{
									OFFSET -8.481377 1.699966 -6.344730
									CHANNELS 3 Xrotation Yrotation Zrotation
									JOINT R_HandPinky2
									{
										OFFSET -3.549675 0.198029 -0.838790
										CHANNELS 3 Xrotation Yrotation Zrotation
										JOINT R_HandPinky3
										{
											OFFSET -2.703461 0.150833 -0.638824
											CHANNELS 3 Xrotation Yrotation Zrotation
											JOINT R_HandPinky4
											{
												OFFSET -1.566620 0.087570 -0.370127
												CHANNELS 3 Xrotation Yrotation Zrotation
												End Site
												{
													OFFSET -1.564934 0.089935 -0.376618
												}
											}
										}
									}
								}
								JOINT R_HandRing1
								{
									OFFSET -9.548805 1.398956 -4.515296
									CHANNELS 3 Xrotation Yrotation Zrotation
									JOINT R_HandRing2
									{
										OFFSET -5.248810 0.292831 -1.240295
										CHANNELS 3 Xrotation Yrotation Zrotation
										JOINT R_HandRing3
										{
											OFFSET -3.295845 0.183868 -0.778810
											CHANNELS 3 Xrotation Yrotation Zrotation
											JOINT R_HandRing4
											{
												OFFSET -2.286743 0.127869 -0.540293
												CHANNELS 3 Xrotation Yrotation Zrotation
												End Site
												{
													OFFSET -2.287079 0.127396 -0.538983
												}
											}
										}
									}
								}
								JOINT R_HandMiddle1
								{
									OFFSET -10.474907 0.584396 -2.475215
									CHANNELS 3 Xrotation Yrotation Zrotation
									JOINT R_HandMiddle2
									{
										OFFSET -5.458221 0.304520 -1.289775
										CHANNELS 3 Xrotation Yrotation Zrotation
										JOINT R_HandMiddle3
										{
											OFFSET -3.630898 0.202576 -0.857977
											CHANNELS 3 Xrotation Yrotation Zrotation
											JOINT R_HandMiddle4
											{
												OFFSET -2.615540 0.146240 -0.617976
												CHANNELS 3 Xrotation Yrotation Zrotation
												End Site
												{
													OFFSET -2.617691 0.143250 -0.609516
												}
											}
										}
									}
								}
								JOINT R_HandIndex1
								{
									OFFSET -10.812164 -0.309097 -0.379652
									CHANNELS 3 Xrotation Yrotation Zrotation
									JOINT R_HandIndex2
									{
										OFFSET -5.224983 0.291504 -1.234665
										CHANNELS 3 Xrotation Yrotation Zrotation
										JOINT R_HandIndex3
										{
											OFFSET -3.289925 0.183563 -0.777405
											CHANNELS 3 Xrotation Yrotation Zrotation
											JOINT R_HandIndex4
											{
												OFFSET -2.296844 0.128418 -0.542606
												CHANNELS 3 Xrotation Yrotation Zrotation
												End Site
												{
													OFFSET -2.295303 0.130524 -0.548598
												}
											}
										}
									}
								}
								JOINT R_HandThumb1
								{
									OFFSET -3.015244 -1.767395 1.148986
									CHANNELS 3 Xrotation Yrotation Zrotation
									JOINT R_HandThumb2
									{
										OFFSET -3.851944 -2.371643 0.417336
										CHANNELS 3 Xrotation Yrotation Zrotation
										JOINT R_HandThumb3
										{
											OFFSET -4.318794 -2.659073 0.467893
											CHANNELS 3 Xrotation Yrotation Zrotation
											JOINT R_HandThumb4
											{
												OFFSET -2.250092 -1.385025 0.243846
												CHANNELS 3 Xrotation Yrotation Zrotation
												End Site
												{
													OFFSET -2.116631 -1.486359 0.592692
												}
											}
										}
									}
								}
							}
						}
					}
				}
			}
		}
	}
	JOINT L_UpLeg
	{
		OFFSET 9.433882 -3.625908 1.174430
		CHANNELS 3 Xrotation Yrotation Zrotation
		JOINT L_Leg
		{
			OFFSET 1.043419 -39.423241 -13.751487
			CHANNELS 3 Xrotation Yrotation Zrotation
			JOINT L_Foot
			{
				OFFSET 1.343018 -36.485020 -14.269221
				CHANNELS 3 Xrotation Yrotation Zrotation
				JOINT L_ToeBase
				{
					OFFSET -1.853707 -14.135328 3.709745
					CHANNELS 3 Xrotation Yrotation Zrotation
					JOINT L_Toe_End
					{
						OFFSET -1.653399 -2.190421 6.067972
						CHANNELS 3 Xrotation Yrotation Zrotation
						End Site
						{
							OFFSET -1.653398 -2.190422 6.067972
						}
					}
				}
			}
		}
	}
	JOINT R_UpLeg
	{
		OFFSET -9.289741 -2.581306 -3.249951
		CHANNELS 3 Xrotation Yrotation Zrotation
		JOINT R_Leg
		{
			OFFSET 1.043894 -39.422600 -13.753361
			CHANNELS 3 Xrotation Yrotation Zrotation
			JOINT R_Foot
			{
				OFFSET 1.342566 -36.485729 -14.267485
				CHANNELS 3 Xrotation Yrotation Zrotation
				JOINT R_ToeBase
				{
					OFFSET -1.853822 -14.135473 3.710173
					CHANNELS 3 Xrotation Yrotation Zrotation
					JOINT R_Toe_End
					{
						OFFSET -1.472407 -2.204803 6.123297
						CHANNELS 3 Xrotation Yrotation Zrotation
						End Site
						{
							OFFSET -1.472407 -2.204803 6.123297
						}
					}
				}
			}
		}
	}
}
MOTION
Frames: 5
Frame Time: 0.041667
-0.712864 88.835419 -4.986884 -0.817392 19.529930 -4.389124 7.339479 -11.143959 5.679846 5.044319 -4.531484 1.058694 5.153868 -4.481372 0.795941 -3.918638 1.649909 1.013348 -0.000002 -0.000000 -0.000001 -16.399055 7.644817 5.904437 -0.000001 -0.000003 -0.000001 -0.000001 -0.000002 -0.000001 -0.000001 -0.000002 -0.000001 0.000000 -0.000003 -0.000001 0.655074 -18.075380 -4.139493 -31.114367 0.372754 -58.063424 -64.554816 -72.645031 -83.995139 -26.886051 -42.334479 14.702880 -2.215941 -0.473984 5.970184 7.925685 19.471529 14.570812 -11.278288 10.758291 14.763543 -0.000000 0.000002 0.000002 32.189312 12.673144 -81.815223 23.016916 14.546022 -56.731473 17.860250 13.742854 -45.922551 0.000000 -0.000004 -0.000002 33.074788 14.554233 -83.383291 23.109945 14.551658 -56.924770 17.841035 13.737968 -45.881885 -0.000003 0.000006 0.000001 33.304453 14.654342 -83.028545 23.622464 14.565416 -58.006877 17.357322 13.621181 -44.853497 -0.000000 -0.000004 -0.000001 47.940343 20.244641 -103.317792 23.708623 14.580972 -58.167141 17.880756 13.747995 -45.966316 -0.000001 0.000001 -0.000001 0.448863 22.444878 6.714291 33.639761 -26.426388 60.691832 -8.254368 42.459099 18.384859 -5.719305 -16.148488 1.851712 16.758593 -49.354916 91.104171 -1.542701 -26.608711 55.168404 -3.457534 -21.379868 43.521016 0.000002 0.000001 -0.000001 9.725848 -38.697741 85.277480 -1.575063 -26.544502 55.015333 -3.572528 -20.883039 42.481359 0.000001 0.000002 -0.000001 2.798010 -37.000146 78.602206 -1.794257 -26.095730 53.954567 -3.466939 -21.341823 43.442025 -0.000002 0.000005 0.000002 3.458271 -34.741692 78.150184 -1.832256 -26.015516 53.766354 -3.461575 -21.361072 43.479970 -0.000005 -0.000002 -0.000000 -0.000497 6.432556 -5.907935 13.373917 -22.412605 -8.643126 -5.143445 -8.560408 -16.157169 0.000003 -0.000004 0.000003 -0.554372 11.684700 12.573833 14.127059 7.204955 5.630517 -7.305194 0.261374 -10.796387 -24.561160 2.565539 -5.360162 0.000003 0.000002 0.000001 -79.518613 -0.421429 -5.046830 102.168080 4.935615 12.957556 22.038703 -0.691691 -13.606445 0.727168 -0.039470 0.172058 -0.000002 0.000003 0.000001 
-0.248878 88.731087 -5.106404 2.722374 14.840949 -11.063804 6.628449 -14.430957 11.203371 4.709179 -5.035942 1.864815 4.803602 -5.094856 1.475509 -1.847315 3.215875 1.442018 -0.000002 0.000003 0.000001 -15.833569 16.631261 4.863621 -0.000003 0.000002 -0.000000 -0.000003 0.000003 -0.000000 -0.000002 0.000002 -0.000001 -0.000001 0.000002 -0.000001 -0.624015 -14.790891 -3.771229 -34.418259 1.736195 -42.791709 -115.649364 -65.547659 -138.560728 -23.805323 -29.779922 21.257717 -2.215948 -0.473996 5.970176 7.925677 19.471527 14.570807 -11.278285 10.758294 14.763546 0.000003 0.000003 0.000005 32.189309 12.673145 -81.815223 23.016908 14.546022 -56.731445 17.860251 13.742852 -45.922558 -0.000001 -0.000000 -0.000000 33.074778 14.554237 -83.383284 23.109947 14.551658 -56.924770 17.841035 13.737975 -45.881878 0.000001 0.000004 0.000000 33.304450 14.654342 -83.028545 23.622467 14.565421 -58.006877 17.357321 13.621173 -44.853497 0.000004 0.000001 -0.000004 47.940340 20.244633 -103.317792 23.708623 14.580977 -58.167141 17.880754 13.747997 -45.966319 0.000001 0.000007 0.000004 -0.622639 28.449936 7.458855 46.952401 -37.408137 58.209010 -17.303543 55.034632 29.903559 -15.471965 -5.940680 -5.212307 16.758602 -49.354909 91.104171 -1.542700 -26.608715 55.168404 -3.457528 -21.379868 43.521016 0.000001 0.000001 0.000001 9.725844 -38.697745 85.277473 -1.575055 -26.544502 55.015333 -3.572537 -20.883037 42.481362 0.000002 -0.000001 -0.000002 2.798009 -37.000149 78.602206 -1.794258 -26.095730 53.954570 -3.466940 -21.341811 43.442018 0.000000 0.000004 0.000002 3.458277 -34.741703 78.150198 -1.832258 -26.015514 53.766365 -3.461573 -21.361077 43.479967 -0.000003 -0.000001 -0.000001 -0.000494 6.432554 -5.907934 13.373915 -22.412600 -8.643128 -5.143445 -8.560408 -16.157166 0.000001 -0.000003 -0.000005 6.397904 11.708367 18.215811 11.076134 8.487928 5.371646 21.779402 1.353276 -0.355639 -16.519118 1.471826 -3.727010 0.000002 -0.000000 -0.000001 -85.308598 -1.183266 5.416072 73.005836 1.521737 12.098103 11.965765 0.782554 -11.489500 0.094907 -0.005277 0.022425 -0.000002 0.000003 0.000000 
0.805298 90.194321 -3.458478 1.675662 11.276454 -5.461276 6.639553 -11.704616 7.580147 4.186133 -3.752030 1.792818 4.267365 -3.781971 1.551888 -2.765071 2.347006 2.068805 0.000002 0.000001 0.000000 -15.140016 17.231490 2.028611 -0.000001 0.000003 0.000001 -0.000001 0.000003 0.000001 -0.000002 0.000003 0.000001 0.000000 0.000002 -0.000000 0.471139 -14.669278 -3.985099 -15.137193 -2.701064 -42.248449 -106.934138 -68.655463 -128.991018 -31.658425 -22.815231 12.033735 -2.215949 -0.474003 5.970174 7.925683 19.471531 14.570803 -11.278292 10.758291 14.763531 0.000006 0.000009 0.000010 32.189312 12.673141 -81.815230 23.016901 14.546018 -56.731449 17.860251 13.742855 -45.922558 -0.000002 0.000000 0.000001 33.074778 14.554228 -83.383284 23.109947 14.551657 -56.924777 17.841031 13.737970 -45.881874 0.000001 0.000000 0.000002 33.304450 14.654343 -83.028545 23.622469 14.565418 -58.006871 17.357322 13.621172 -44.853497 -0.000001 -0.000002 -0.000004 47.940329 20.244636 -103.317772 23.708628 14.580975 -58.167148 17.880754 13.747995 -45.966316 -0.000004 0.000004 -0.000001 -0.778939 26.824424 9.549098 41.483349 -44.438129 59.956125 -14.529218 52.129585 26.553699 -18.397178 10.009050 -13.720008 16.758600 -49.354909 91.104164 -1.542693 -26.608711 55.168408 -3.457530 -21.379858 43.520996 0.000003 0.000003 0.000002 9.725836 -38.697745 85.277466 -1.575055 -26.544504 55.015333 -3.572530 -20.883037 42.481369 0.000001 0.000000 0.000001 2.798013 -37.000152 78.602206 -1.794255 -26.095730 53.954570 -3.466933 -21.341811 43.442008 -0.000001 -0.000001 -0.000001 3.458273 -34.741709 78.150219 -1.832255 -26.015516 53.766358 -3.461578 -21.361072 43.479970 -0.000002 -0.000003 0.000002 -0.000496 6.432558 -5.907934 13.373913 -22.412607 -8.643119 -5.143446 -8.560414 -16.157157 -0.000003 0.000001 -0.000000 8.167716 11.322446 7.949104 30.915318 9.219179 11.008584 35.805498 5.871453 6.295100 5.118066 -0.231060 1.219891 -0.000001 -0.000000 0.000001 -70.565799 1.011905 4.236506 39.641059 2.226290 9.032445 9.695971 1.986540 -3.191021 -1.424210 0.083634 -0.335534 0.000005 0.000003 0.000001 
1.562584 90.341766 -1.606960 -1.630984 9.023058 -0.648195 8.326865 -7.628778 5.023679 4.411200 -2.787058 1.810706 4.472252 -2.761974 1.718823 -5.292152 1.178371 2.296232 -0.000000 -0.000002 -0.000001 -13.826471 15.119088 -0.214819 0.000002 0.000001 0.000000 0.000000 0.000002 0.000000 0.000001 0.000000 0.000000 0.000004 0.000000 -0.000000 2.272582 -13.124049 -9.304232 4.194782 -10.250092 -49.799811 -17.915767 -59.851527 -33.289977 -41.368338 -22.315545 -0.853029 -2.215945 -0.473999 5.970186 7.925687 19.471532 14.570795 -11.278294 10.758294 14.763544 0.000002 0.000003 0.000008 32.189305 12.673140 -81.815223 23.016904 14.546017 -56.731456 17.860250 13.742849 -45.922558 0.000001 -0.000002 -0.000000 33.074788 14.554226 -83.383291 23.109940 14.551660 -56.924774 17.841031 13.737970 -45.881871 0.000002 0.000003 -0.000003 33.304453 14.654331 -83.028545 23.622465 14.565418 -58.006877 17.357321 13.621171 -44.853501 0.000004 -0.000000 0.000002 47.940340 20.244633 -103.317785 23.708623 14.580970 -58.167141 17.880759 13.747996 -45.966319 -0.000001 0.000002 -0.000005 -2.795865 21.383217 16.043409 28.301604 -36.545211 56.148919 -13.385115 50.740208 25.136980 -20.452318 29.638424 -14.354607 16.758603 -49.354920 91.104178 -1.542691 -26.608713 55.168408 -3.457533 -21.379856 43.520992 -0.000002 -0.000000 -0.000001 9.725835 -38.697745 85.277466 -1.575060 -26.544504 55.015333 -3.572525 -20.883035 42.481366 -0.000002 0.000001 0.000001 2.798014 -37.000156 78.602206 -1.794260 -26.095730 53.954570 -3.466936 -21.341809 43.442008 -0.000003 0.000002 0.000001 3.458275 -34.741699 78.150198 -1.832258 -26.015518 53.766365 -3.461574 -21.361075 43.479973 0.000001 -0.000002 0.000001 -0.000495 6.432555 -5.907931 13.373918 -22.412607 -8.643131 -5.143444 -8.560414 -16.157173 -0.000000 -0.000003 -0.000001 -2.209582 16.021631 3.848401 69.082268 14.632970 19.248103 38.945469 8.622373 6.295817 4.122158 -0.194667 0.981065 -0.000002 0.000002 -0.000001 -51.362285 -2.880305 -0.842360 24.173254 3.401568 6.935458 9.743007 1.212217 -0.811634 -1.246270 0.072731 -0.293721 -0.000005 0.000003 0.000001 
1.083097 89.017731 -0.628941 -1.659821 7.375365 -0.724488 6.891608 -4.096916 5.358668 4.032120 -2.378474 1.783336 4.038857 -2.367433 1.782886 -5.763124 1.196131 1.663728 -0.000001 0.000001 0.000000 -13.084272 13.073757 -0.492905 -0.000001 0.000002 -0.000000 -0.000001 0.000003 -0.000000 -0.000002 0.000001 -0.000000 0.000000 0.000001 -0.000000 4.260946 -9.704923 -17.915909 14.034727 -14.908554 -55.912181 -0.002185 -8.037675 -2.691681 -32.701778 -11.060240 -4.236079 -2.215945 -0.473997 5.970172 7.925682 19.471534 14.570807 -11.278288 10.758290 14.763541 0.000004 0.000003 0.000009 32.189309 12.673142 -81.815223 23.016904 14.546027 -56.731445 17.860255 13.742858 -45.922558 0.000002 -0.000001 0.000001 33.074785 14.554235 -83.383291 23.109950 14.551667 -56.924770 17.841031 13.737976 -45.881871 0.000003 -0.000000 0.000001 33.304453 14.654336 -83.028531 23.622474 14.565414 -58.006884 17.357324 13.621172 -44.853504 -0.000002 -0.000000 -0.000002 47.940340 20.244635 -103.317792 23.708623 14.580967 -58.167141 17.880754 13.747994 -45.966319 0.000003 0.000005 -0.000005 -4.378835 14.995160 21.719827 10.142453 -17.581899 52.123305 -14.250914 51.803105 26.211215 -18.045302 50.270039 -11.008246 16.758608 -49.354920 91.104171 -1.542699 -26.608723 55.168418 -3.457525 -21.379862 43.520996 0.000001 -0.000006 -0.000002 9.725836 -38.697741 85.277466 -1.575064 -26.544504 55.015333 -3.572525 -20.883037 42.481366 -0.000001 0.000001 -0.000000 2.798014 -37.000149 78.602206 -1.794245 -26.095726 53.954567 -3.466943 -21.341811 43.442015 0.000001 -0.000001 -0.000001 3.458279 -34.741699 78.150198 -1.832258 -26.015526 53.766368 -3.461575 -21.361073 43.479967 -0.000003 -0.000001 0.000001 -0.000495 6.432554 -5.907934 13.373915 -22.412603 -8.643126 -5.143444 -8.560407 -16.157164 -0.000008 0.000008 -0.000001 -27.176348 16.116115 8.336432 104.024792 22.673513 22.102176 38.554044 9.190695 11.122517 10.245199 -0.352398 2.456794 -0.000002 0.000003 0.000000 -43.012788 -7.596330 -3.083080 39.353614 5.372709 11.012484 -12.348415 5.888909 -12.619637 -1.993075 0.119377 -0.468993 -0.000000 0.000002 0.000001 
